<svg width="579" height="579" viewBox="0 0 579 579" fill="none" xmlns="http://www.w3.org/2000/svg">
<g clip-path="url(#clip0_348_174)">
<path d="M366.699 161.183L107.744 227.84C97.5382 230.486 88.3974 236.216 81.5675 244.248C74.7376 252.28 70.551 262.223 69.5786 272.721C68.6062 283.219 70.8952 293.762 76.1335 302.912C81.3719 312.062 89.3047 319.373 98.8503 323.849L189.979 366.186C192.136 367.25 194.06 368.732 195.638 370.548C197.215 372.363 198.416 374.474 199.169 376.758L228.411 472.892C230.909 481.059 235.407 488.472 241.499 494.458C247.59 500.444 255.081 504.813 263.29 507.168C271.499 509.522 280.167 509.788 288.505 507.941C296.843 506.094 304.587 502.193 311.034 496.591C317.019 491.283 321.74 484.704 324.853 477.335L426.901 230.177C430.504 221.39 431.594 211.776 430.051 202.405C428.508 193.035 424.391 184.278 418.161 177.111C411.931 169.944 403.832 164.649 394.767 161.816C385.703 158.984 376.03 158.726 366.828 161.071L366.699 161.183ZM395.235 217.186L293.188 464.344C291.807 467.542 289.481 470.242 286.522 472.081C283.563 473.92 280.113 474.811 276.634 474.633C273.154 474.456 269.813 473.219 267.056 471.089C264.3 468.958 262.261 466.036 261.212 462.713L231.841 366.692C231.436 365.42 230.958 364.174 230.407 362.959L319.239 285.738C322.659 282.765 324.757 278.556 325.074 274.036C325.39 269.517 323.897 265.057 320.925 261.637C317.952 258.218 313.743 256.119 309.223 255.803C304.704 255.487 300.244 256.979 296.824 259.952L207.992 337.173C206.865 336.458 205.697 335.811 204.495 335.233L113.495 292.784C110.351 291.283 107.741 288.857 106.015 285.831C104.288 282.805 103.529 279.324 103.837 275.854C104.146 272.384 105.508 269.091 107.741 266.417C109.974 263.743 112.971 261.815 116.331 260.893L375.286 194.236C378.338 193.482 381.539 193.585 384.537 194.534C387.535 195.483 390.212 197.24 392.275 199.613C394.338 201.986 395.706 204.882 396.228 207.983C396.75 211.083 396.407 214.268 395.235 217.186Z" fill="#20B486"/>
<circle cx="199" cy="351" r="75" fill="#20B486" fill-opacity="0.3"/>
<path d="M308 351L312.266 364.82L326.07 364.82L314.902 373.361L319.168 387.18L308 378.639L296.832 387.18L301.098 373.361L289.93 364.82L303.734 364.82L308 351Z" fill="#BCE9DB"/>
</g>
<defs>
<clipPath id="clip0_348_174">
<rect width="410" height="410" fill="white" transform="translate(0 268.984) rotate(-41)"/>
</clipPath>
</defs>
</svg>
