<?xml version="1.0" encoding="utf-8"?>
<!-- Generator: Adobe Illustrator 27.5.0, SVG Export Plug-In . SVG Version: 6.00 Build 0)  -->
<svg version="1.1" xmlns="http://www.w3.org/2000/svg" xmlns:xlink="http://www.w3.org/1999/xlink" x="0px" y="0px"
	 viewBox="0 0 750 500" style="enable-background:new 0 0 750 500;" xml:space="preserve">
<g id="BACKGROUND">
	<rect style="fill:#FFFFFF;" width="750" height="500"/>
</g>
<g id="OBJECTS">
	<path style="fill:#F9E4CA;" d="M68.074,470.878c0.003,0,623.496,0,623.615,0c6.475,0,18.699-32.017,20.694-37.479
		c5.15-14.103,7.07-25.417,3.802-39.94c-6.37-28.305-25.347-50.881-47.07-69.236c-24.437-20.648-52.392-37.581-72.93-62.11
		c-6.099-7.284-11.533-15.282-14.692-24.242c-7.089-20.109-2.009-42.266-3.511-63.535c-1.862-26.373-14.457-51.83-34.291-69.312
		c-13.43-11.837-30.071-19.923-47.605-23.452c-19.827-3.991-37.851,0.16-57.484,3.122c-36.997,5.583-74.625,3.682-110.939-5.549
		c-29.033-7.38-59.611-18.505-90.45-15.34c-28.725,2.948-56.146,15.624-77.663,34.771c-26.667,23.729-44.876,57.509-51.823,93.599
		c-3.515,18.259-4.845,36.951-8.922,55.063c-12.453,55.328-64.494,101.854-65.715,152.847
		C32.484,425.482,45.157,452.042,68.074,470.878z"/>
	<g>
		<g>
			<path style="fill:#DBB997;" d="M180.247,173.29h67.818v-19.259h-67.818c-5.318,0-9.629,4.311-9.629,9.629l0,0
				C170.618,168.979,174.929,173.29,180.247,173.29z"/>
			<path style="fill:#DBB997;" d="M239.593,173.29h47.133v-19.259h-47.133c-5.318,0-9.629,4.311-9.629,9.629l0,0
				C229.963,168.979,234.274,173.29,239.593,173.29z"/>
			<path style="fill:#F2DBAA;" d="M240.239,157.6h46.487v12.122h-46.487c-3.347,0-6.061-2.714-6.061-6.061
				S236.891,157.6,240.239,157.6z"/>
			<path style="fill:none;stroke:#B28F6F;stroke-width:1.5;stroke-miterlimit:10;" d="M233.931,172.67
				c-2.405-1.962-3.986-5.264-3.986-9.009c0-3.745,1.58-7.047,3.986-9.009"/>
			<path style="fill:none;stroke:#B28F6F;stroke-width:1.5;stroke-miterlimit:10;" d="M182.491,172.67
				c-2.405-1.962-3.986-5.264-3.986-9.009c0-3.745,1.58-7.047,3.986-9.009"/>
		</g>
		<g>
			<path style="fill:#F7BC81;" d="M177.35,128.62c-7.189,0-13.016,5.827-13.016,13.016c0,7.189,5.827,13.016,13.016,13.016h57.641
				V128.62H177.35z"/>
			<path style="fill:#F7BC81;" d="M223.539,128.62c-7.189,0-13.016,5.827-13.016,13.016c0,7.189,5.827,13.016,13.016,13.016h63.71
				V128.62H223.539z"/>
			<path style="fill:#FFE6C2;" d="M224.412,133.443c-4.525,0-8.192,3.668-8.192,8.192s3.668,8.192,8.192,8.192h62.837v-16.385
				H224.412z"/>
			<path style="fill:none;stroke:#CC8F58;stroke-width:1.5;stroke-miterlimit:10;" d="M213.124,151.608
				c-2.136-2.171-3.54-5.827-3.54-9.972s1.404-7.801,3.54-9.972"/>
			<path style="fill:none;stroke:#CC8F58;stroke-width:1.5;stroke-miterlimit:10;" d="M174.299,151.608
				c-2.136-2.171-3.54-5.827-3.54-9.972s1.404-7.801,3.54-9.972"/>
		</g>
		<g>
			
				<rect x="285.359" y="100.314" transform="matrix(0.9519 -0.3063 0.3063 0.9519 -27.5529 97.1498)" style="fill:#F2DBAA;" width="20.852" height="72.114"/>
			
				<line style="fill:none;stroke:#F7EAB5;stroke-width:1.5;stroke-miterlimit:10;" x1="277.436" y1="111.187" x2="295.677" y2="105.317"/>
			
				<line style="fill:none;stroke:#F7EAB5;stroke-width:1.5;stroke-miterlimit:10;" x1="279.185" y1="116.061" x2="297.426" y2="110.192"/>
			
				<line style="fill:none;stroke:#F7EAB5;stroke-width:1.5;stroke-miterlimit:10;" x1="296.152" y1="168.792" x2="314.393" y2="162.923"/>
		</g>
		<g>
			<polygon style="fill:#FFE7B0;" points="345.109,165.068 318.81,173.888 296.722,105.24 323.022,96.42 			"/>
			
				<line style="fill:none;stroke:#E5CA9A;stroke-width:1.5;stroke-miterlimit:10;" x1="302.127" y1="112.684" x2="322.709" y2="105.782"/>
			
				<ellipse transform="matrix(0.9519 -0.3063 0.3063 0.9519 -25.4775 104.5222)" style="fill:none;stroke:#E5CA9A;stroke-width:1.5;stroke-miterlimit:10;" cx="320.313" cy="133.443" rx="6.14" ry="17.326"/>
			
				<line style="fill:none;stroke:#E5CA9A;stroke-width:1.5;stroke-miterlimit:10;" x1="318.053" y1="161.856" x2="338.636" y2="154.953"/>
			
				<line style="fill:none;stroke:#E5CA9A;stroke-width:1.5;stroke-miterlimit:10;" x1="320.007" y1="167.93" x2="340.59" y2="161.027"/>
		</g>
		<g>
			<rect x="542.566" y="155.886" style="fill:#DBB997;" width="76.13" height="48.342"/>
			<path style="fill:#AF8B6D;" d="M602.307,170.88h-43.351c-1.206,0-2.183-0.977-2.183-2.183v-0.449
				c0-1.206,0.977-2.183,2.183-2.183h43.351c1.206,0,2.183,0.977,2.183,2.183v0.449C604.49,169.902,603.512,170.88,602.307,170.88z"
				/>
			<rect x="540.261" y="144.643" style="fill:#DBB997;" width="80.74" height="15.946"/>
			
				<line style="fill:none;stroke:#292944;stroke-width:1.5;stroke-miterlimit:10;" x1="618.696" y1="160.751" x2="542.566" y2="160.751"/>
		</g>
		<g>
			<path style="fill:#EAC88B;" d="M649.518,203.306h-84.955v-24.125h84.955c6.662,0,12.063,5.401,12.063,12.063l0,0
				C661.581,197.906,656.18,203.306,649.518,203.306z"/>
			<path style="fill:#EAC88B;" d="M598.102,203.306h-36.446v-24.125h36.446c6.662,0,12.063,5.401,12.063,12.063l0,0
				C610.164,197.906,604.764,203.306,598.102,203.306z"/>
			<path style="fill:#F2DBAA;" d="M597.292,183.651h-35.637v15.185h35.637c4.193,0,7.592-3.399,7.592-7.592
				C604.885,187.05,601.486,183.651,597.292,183.651z"/>
			<path style="fill:none;stroke:#292944;stroke-width:1.5;stroke-miterlimit:10;" d="M605.638,201.216
				c3.185-2.171,5.278-5.827,5.278-9.972s-2.093-7.801-5.278-9.972"/>
			<path style="fill:none;stroke:#292944;stroke-width:1.5;stroke-miterlimit:10;" d="M611.901,201.216
				c3.185-2.171,5.278-5.827,5.278-9.972s-2.093-7.801-5.278-9.972"/>
			<path style="fill:#DDB576;" d="M642.918,181.271h-24.094c2.732,2.171,4.527,5.827,4.527,9.972s-1.795,7.801-4.527,9.972h24.094
				c2.732-2.171,4.527-5.827,4.527-9.972S645.65,183.443,642.918,181.271z"/>
			<path style="fill:none;stroke:#292944;stroke-width:1.5;stroke-miterlimit:10;" d="M649.819,201.216
				c3.185-2.171,5.278-5.827,5.278-9.972s-2.093-7.801-5.278-9.972"/>
			
				<line style="fill:none;stroke:#E0BF85;stroke-width:1.5;stroke-miterlimit:10;" x1="604.75" y1="189.83" x2="561.655" y2="189.83"/>
			
				<line style="fill:none;stroke:#E0BF85;stroke-width:1.5;stroke-miterlimit:10;" x1="603.635" y1="194.676" x2="561.655" y2="194.676"/>
		</g>
		
			<line style="fill:none;stroke:#C6AC8F;stroke-width:1.5;stroke-miterlimit:10;" x1="107.468" y1="264.027" x2="301.473" y2="264.027"/>
		
			<line style="fill:none;stroke:#C6AC8F;stroke-width:1.5;stroke-miterlimit:10;" x1="126.308" y1="173.888" x2="354.012" y2="173.888"/>
		
			<line style="fill:none;stroke:#C6AC8F;stroke-width:1.5;stroke-miterlimit:10;" x1="517.715" y1="204.228" x2="677.497" y2="204.228"/>
		<g>
			<path style="fill:#C1B376;" d="M224.692,214.135c3.229-1.701,6.484-4.476,6.503-8.126c0.009-1.63-0.651-3.243-0.416-4.856
				c0.166-1.14,0.768-2.173,1.47-3.087c2.513-3.271,6.286-5.274,9.842-7.365c3.556-2.091,7.17-4.544,8.97-8.256
				c1.8-3.712,1-8.981-2.691-10.823c-1.318-0.657-2.86-0.828-4.091-1.636c-1.853-1.215-2.572-3.577-2.82-5.779
				c-0.305-2.71-0.103-5.45-0.219-8.174c-0.116-2.725-0.585-5.527-2.078-7.81s-4.199-3.93-6.895-3.518
				c-3.628,0.553-5.8,4.378-6.633,7.953s-0.929,7.44-2.847,10.569c-2.51,4.096-7.532,5.952-10.61,9.64
				c-2.281,2.733-3.353,6.441-2.882,9.97c0.505,3.78,2.622,7.825,0.746,11.146c-1.289,2.282-4.171,3.437-5.119,5.881
				c-0.918,2.366,0.147,4.828,0.227,7.231c0.18,5.39-4.225,9.229-4.509,14.315c-0.124,2.213,1.333,4.57,3.676,4.785
				c2.529,0.232,3.948-1.967,5.429-3.575C213.87,218.141,219.465,216.889,224.692,214.135z"/>
			<path style="fill:none;stroke:#898050;stroke-width:1.5;stroke-miterlimit:10;" d="M235.311,145.562
				c-2.452,4.966-3.469,10.63-2.896,16.138c0.255,2.459,0.815,4.976,0.178,7.365c-1.449,5.433-8.297,7.825-10.311,13.075
				c-1.923,5.013,1.102,11.295-1.885,15.757c-1.937,2.893-6.058,4.315-6.781,7.721c-0.317,1.493,0.131,3.055-0.085,4.567
				c-0.366,2.562-2.498,4.437-4.337,6.259c-3.738,3.703-6.922,9.043-5.19,14.01"/>
			<rect x="147.531" y="233.026" style="fill:#FFFFFF;" width="94.493" height="30.289"/>
			
				<line style="fill:none;stroke:#E0D1AF;stroke-width:1.5;stroke-miterlimit:10;" x1="147.531" y1="238.75" x2="242.024" y2="238.75"/>
			<path style="fill:#998C53;" d="M169.606,182.823c-0.492-1.184-0.928-2.392-1.323-3.604c-2.752-8.441-6.129-15.458-15.724-17.19
				c-2.935-0.53-5.962-0.341-8.899-0.861c-4.58-0.81-8.667-3.282-12.763-5.494c-4.096-2.212-8.524-4.252-13.171-4.072
				c-4.647,0.181-9.491,3.27-10.172,7.885c-0.466,3.159,1.038,6.268,2.773,8.946c1.736,2.678,3.785,5.252,4.629,8.332
				c1.057,3.859,0.11,8.155,1.689,11.83c1.573,3.661,5.374,5.917,9.227,6.891c3.853,0.975,7.879,0.91,11.83,1.328
				c9.255,0.979,8.602,11.012,15.69,14.47c1.627,0.794,3.483,0.917,5.268,1.211c5.79,0.952,11.241,3.876,15.246,8.179
				c1.738,1.867,3.221,3.993,5.198,5.604c1.267,1.032,2.788,1.852,4.419,1.901c2.809,0.085,5.246-2.17,6.362-4.757
				c3.844-8.914-1.861-21.153-8.721-26.963c-1.836-1.554-3.874-2.865-5.62-4.52C172.887,189.425,171.018,186.224,169.606,182.823z"
				/>
			<path style="fill:#998C53;" d="M230.591,212.718c-7.882,3.788-27.545,3.419-27.52,15.099c0.004,1.62,0.877,3.32,2.463,3.984
				c2.08,0.87,4.425-0.229,6.578-0.928c3.868-1.256,8.216-1.186,12.035,0.194c4.941,1.785,10.244,6.554,15.941,4.894
				c2.219-0.647,3.28-2.275,5.658-2.451c3.173-0.235,6.722,2.141,9.125,3.78c3.518,2.4,7.402,5.12,11.735,4.658
				c1.471-0.157,2.977-0.76,3.755-1.932c0.395-0.594,0.575-1.291,0.683-1.982c0.453-2.89-0.298-5.929-2.062-8.344
				c-2.569-3.518-5.5-5.489-6.84-9.734c-1.713-5.429-5.869-5.754-10.986-7.466c-4.242-1.42-8.808-2.456-13.345-2.038
				C235.113,210.699,232.833,211.64,230.591,212.718z"/>
			<path style="fill:none;stroke:#605534;stroke-width:1.5;stroke-miterlimit:10;" d="M110.621,154.682
				c7.913,2.481,12.885,10.622,20.557,13.775c4.73,1.944,10.285,1.898,14.469,4.843c5.784,4.072,6.83,12.212,11.071,17.882
				c3.92,5.241,10.262,7.99,15.219,12.255c7.949,6.838,11.902,17.122,15.555,26.965"/>
			<path style="fill:#998C53;" d="M159.55,215.923c8.757-0.033,17.657,3.261,25.137,7.655c1.293,0.759,2.608,1.628,3.325,2.945
				c0.716,1.317,0.605,3.202-0.626,4.059c-1.004,0.699-2.344,0.514-3.567,0.522c-2.666,0.017-5.308,1.143-7.167,3.054
				c-3.104,3.191-4.172,8.45-8.228,10.286c-1.693,0.766-3.645,0.773-5.359,1.489c-4.34,1.813-1.927,6.958-2.122,10.413
				c-0.185,3.276-2.747,5.914-5.433,7.799c-2.686,1.885-5.723,3.415-7.755,5.991c-4.007,5.08-3.199,13.047-7.885,17.508
				c-3.821,3.638-10.414,3.347-14.462-0.036c-4.048-3.383-5.597-9.176-4.656-14.368c1.074-5.925,4.998-11.23,5.064-17.251
				c0.035-3.242-1.069-6.414-1.043-9.656c0.046-5.712,3.743-10.999,8.646-13.93c2.417-1.445,5.138-2.414,7.299-4.22
				c2.199-1.837,3.645-4.394,5.42-6.643C149.351,217.467,154.218,215.943,159.55,215.923z"/>
			<path style="fill:none;stroke:#605534;stroke-width:1.5;stroke-miterlimit:10;" d="M130.666,288.801
				c-0.836-5.804,0.515-11.89,3.735-16.82c1.528-2.341,3.463-4.435,4.69-6.942c1.124-2.299,1.604-4.843,2.086-7.35
				c1.351-7.024,3.376-14.84,9.619-18.481c2.223-1.297,4.84-1.947,6.826-3.575c1.353-1.109,2.318-2.596,3.418-3.95
				c4.482-5.518,11.538-10.641,19.133-9.319c3.457,0.602,6.459,2.661,9.95,3.164"/>
			<path style="fill:none;stroke:#605534;stroke-width:1.5;stroke-miterlimit:10;" d="M269.533,240.931
				c-2.079-3.811-4.328-7.799-8.385-10.221c-3.971-2.371-8.069-4.505-12.013-6.925c-7.756-4.757-13.728-1.352-22.03-0.688
				c-3.798,0.304-7.62,0.132-11.42,0.414c-4.334,0.322-8.804,1.293-12.01,3.778"/>
			<path style="fill:#C1B376;" d="M210.379,233.026c-2.09-11.894-11.328-12.889-17.306-12.656c-4.376,0.17-8.574,2.014-11.899,4.823
				c-3.591,3.033-4.177,8.1-4.893,12.449c-0.34,2.066-0.449,4.325-1.318,6.253c-0.915,2.03-2.642,3.613-3.937,5.392
				c-4.365,5.994-0.76,13.057,0.037,19.552c0.514,4.186,0.85,8.855,0.139,13.003c-0.83,4.837-1.76,9.621-1.806,14.55
				c-0.048,5.096,1.324,10.256,3.54,14.935c2.338,4.935,6.086,9.132,8.074,14.186c1.026,2.608,1.962,5.84,4.662,6.59
				c2.018,0.561,4.187-0.693,5.35-2.436c1.163-1.742,1.545-3.875,1.902-5.939c0.533-3.09,1.067-6.186,1.281-9.314
				c0.214-3.124,0.118-6.33,1.132-9.292c1.128-3.294,3.521-5.979,5.225-9.015c2.462-4.385,3.396-9.994,0.998-14.414
				c-1.621-2.989-4.647-5.291-5.274-8.633c-1.159-6.177,6.426-11.018,6.417-17.304c-0.005-3.402-2.238-6.325-3.756-9.37
				c-1.573-3.156-2.428-6.668-2.482-10.194c-0.026-1.695,0.097-4.678,1.871-5.515c1.499-0.707,2.652,2.35,2.652,2.35"/>
			<path style="fill:none;stroke:#898050;stroke-width:1.5;stroke-miterlimit:10;" d="M188.747,331.193
				c-2.782-7.215-5.612-14.903-4.161-22.499c0.415-2.175,1.181-4.313,1.138-6.527c-0.154-7.86-6.276-12.263-3.967-20.762
				c0.934-3.437,2.407-6.736,2.975-10.252c1.193-7.375-3.668-12.44-3.854-19.372c-0.04-1.493,0.137-2.984,0.457-4.441
				c0.326-1.487,0.913-2.179,1.679-3.422c1.53-2.483,2.765-5.211,3.139-8.126c0.24-1.868,0.124-3.786,0.585-5.612
				c0.818-3.244,3.492-5.888,6.756-6.642c2.567-0.593,5.484,0.232,7.679,1.63c2.913,1.856,4.406,4.828,5.681,7.919"/>
		</g>
	</g>
	<g>
		<g>
			<g>
				<path style="fill:#EF750D;" d="M669.419,432.578c10.361,0,18.76,8.399,18.76,18.761c0,10.361-8.399,18.76-18.76,18.76h-54.708
					v-37.521H669.419z"/>
				<path style="fill:#D3691A;" d="M631.218,432.578c10.361,0,18.76,8.399,18.76,18.761c0,10.361-8.399,18.76-18.76,18.76H539.39
					v-37.521H631.218z"/>
				<path style="fill:#FFFFFF;" d="M629.959,439.531c6.521,0,11.808,5.287,11.808,11.808c0,6.521-5.287,11.808-11.808,11.808H539.39
					v-23.616H629.959z"/>
				
					<line style="fill:none;stroke:#D3B997;stroke-width:1.5;stroke-miterlimit:10;" x1="602.443" y1="456.038" x2="539.39" y2="456.038"/>
				
					<line style="fill:none;stroke:#D3B997;stroke-width:1.5;stroke-miterlimit:10;" x1="640.313" y1="456.038" x2="617.567" y2="456.038"/>
				
					<line style="fill:none;stroke:#D3B997;stroke-width:1.5;stroke-miterlimit:10;" x1="641.375" y1="447.491" x2="539.39" y2="447.491"/>
				<path style="fill:none;stroke:#292944;stroke-width:1.5;stroke-miterlimit:10;" d="M653.387,438.287
					c3.656,3.967,5.648,8.999,5.549,14.018c-0.099,5.02-2.287,9.993-6.096,13.857"/>
				<path style="fill:none;stroke:#292944;stroke-width:1.5;stroke-miterlimit:10;" d="M659.487,438.287
					c3.656,3.967,5.648,8.999,5.549,14.018s-2.287,9.993-6.097,13.857"/>
			</g>
			<g>
				<path style="fill:#6B543C;" d="M660.049,402.766c8.242,0,14.923,6.681,14.923,14.923s-6.681,14.923-14.923,14.923h-42.037
					v-29.845H660.049z"/>
				<path style="fill:#9B6F48;" d="M631.142,402.766c8.242,0,14.923,6.681,14.923,14.923s-6.681,14.923-14.923,14.923H528.238
					v-29.845H631.142z"/>
				<path style="fill:#FFFFFF;" d="M630.141,408.296c5.188,0,9.393,4.205,9.393,9.393c0,5.187-4.205,9.393-9.393,9.393H528.238
					v-18.785H630.141z"/>
				
					<line style="fill:none;stroke:#D3B997;stroke-width:1.5;stroke-miterlimit:10;" x1="608.254" y1="421.427" x2="528.238" y2="421.427"/>
				
					<line style="fill:none;stroke:#D3B997;stroke-width:1.5;stroke-miterlimit:10;" x1="639.222" y1="421.427" x2="620.284" y2="421.427"/>
				
					<line style="fill:none;stroke:#D3B997;stroke-width:1.5;stroke-miterlimit:10;" x1="639.222" y1="414.629" x2="528.238" y2="414.629"/>
			</g>
			<g>
				<g>
					
						<rect x="592.318" y="307.362" transform="matrix(0.9971 -0.0761 0.0761 0.9971 -26.2389 46.8969)" style="fill:#D5A47B;" width="20.456" height="121.102"/>
					<g>
						
							<line style="fill:none;stroke:#BA855D;stroke-width:1.5;stroke-miterlimit:10;" x1="608.708" y1="314.227" x2="595.711" y2="315.218"/>
						
							<line style="fill:none;stroke:#BA855D;stroke-width:1.5;stroke-miterlimit:10;" x1="609.212" y1="320.84" x2="600.989" y2="321.468"/>
						
							<line style="fill:none;stroke:#BA855D;stroke-width:1.5;stroke-miterlimit:10;" x1="609.717" y1="327.454" x2="601.493" y2="328.081"/>
						
							<line style="fill:none;stroke:#BA855D;stroke-width:1.5;stroke-miterlimit:10;" x1="610.221" y1="334.068" x2="601.998" y2="334.695"/>
						
							<line style="fill:none;stroke:#BA855D;stroke-width:1.5;stroke-miterlimit:10;" x1="610.726" y1="340.681" x2="597.729" y2="341.673"/>
						
							<line style="fill:none;stroke:#BA855D;stroke-width:1.5;stroke-miterlimit:10;" x1="611.23" y1="347.295" x2="603.007" y2="347.922"/>
						
							<line style="fill:none;stroke:#BA855D;stroke-width:1.5;stroke-miterlimit:10;" x1="611.735" y1="353.909" x2="603.511" y2="354.536"/>
						
							<line style="fill:none;stroke:#BA855D;stroke-width:1.5;stroke-miterlimit:10;" x1="612.239" y1="360.522" x2="604.016" y2="361.149"/>
						
							<line style="fill:none;stroke:#BA855D;stroke-width:1.5;stroke-miterlimit:10;" x1="612.744" y1="367.136" x2="599.747" y2="368.127"/>
						
							<line style="fill:none;stroke:#BA855D;stroke-width:1.5;stroke-miterlimit:10;" x1="613.248" y1="373.749" x2="605.025" y2="374.377"/>
						
							<line style="fill:none;stroke:#BA855D;stroke-width:1.5;stroke-miterlimit:10;" x1="613.753" y1="380.363" x2="605.529" y2="380.99"/>
						
							<line style="fill:none;stroke:#BA855D;stroke-width:1.5;stroke-miterlimit:10;" x1="614.257" y1="386.977" x2="606.034" y2="387.604"/>
						
							<line style="fill:none;stroke:#BA855D;stroke-width:1.5;stroke-miterlimit:10;" x1="614.762" y1="393.59" x2="601.765" y2="394.582"/>
						
							<line style="fill:none;stroke:#BA855D;stroke-width:1.5;stroke-miterlimit:10;" x1="615.266" y1="400.204" x2="607.043" y2="400.831"/>
						
							<line style="fill:none;stroke:#BA855D;stroke-width:1.5;stroke-miterlimit:10;" x1="615.771" y1="406.818" x2="607.547" y2="407.445"/>
						
							<line style="fill:none;stroke:#BA855D;stroke-width:1.5;stroke-miterlimit:10;" x1="616.275" y1="413.431" x2="608.052" y2="414.058"/>
						
							<line style="fill:none;stroke:#BA855D;stroke-width:1.5;stroke-miterlimit:10;" x1="616.78" y1="420.045" x2="603.783" y2="421.036"/>
					</g>
				</g>
				<g>
					
						<rect x="589.94" y="347.961" transform="matrix(0.9898 -0.1427 0.1427 0.9898 -50.2644 88.9001)" style="fill:#EF750D;" width="9.138" height="93.673"/>
					<path style="fill:#6B543C;" d="M604.857,445.456l-5.96,0.86c-0.852,0.123-1.641-0.468-1.764-1.32l-0.46-3.19l9.044-1.304
						l0.46,3.19C606.299,444.543,605.709,445.333,604.857,445.456z"/>
					
						<line style="fill:none;stroke:#231F20;stroke-width:1.5;stroke-miterlimit:10;" x1="596.672" y1="441.806" x2="605.717" y2="440.502"/>
					<polyline style="fill:#F9E4CA;" points="583.302,349.092 586.656,340.341 592.346,347.788 					"/>
					<polygon style="fill:#292944;" points="586.656,340.341 585.166,344.229 589.184,343.65 					"/>
				</g>
				<g>
					<path style="fill:none;stroke:#8C7E56;stroke-width:1.5;stroke-linecap:round;stroke-miterlimit:10;" d="M612.492,445.364
						c0,0,4.218,0.531,2.837-2.812c-0.463-1.12-5.177-12.532-5.958-14.422c-0.781-1.89-3.141-4.767-4.211-7.358
						c-1.07-2.59,0.021-3.533,0.021-3.533"/>
					<g>
						<path style="fill:#6B543C;" d="M612.714,455.601c1.46-0.603,2.154-2.275,1.551-3.735l-0.938-2.271l0.781-0.322
							l-47.563-115.206l-8.442,3.488l47.563,115.206l0.781-0.323l0.938,2.271c0.603,1.46,2.275,2.154,3.735,1.551L612.714,455.601z"
							/>
						<path style="fill:#6B543C;" d="M558.564,328.21l-0.562,9.386l8.543-3.529l-7.022-6.253
							C559.163,327.494,558.592,327.73,558.564,328.21z"/>
					</g>
					
						<line style="fill:none;stroke:#8C7E56;stroke-width:1.5;stroke-miterlimit:10;" x1="614.107" y1="449.273" x2="605.665" y2="452.76"/>
					
						<line style="fill:none;stroke:#8C7E56;stroke-width:1.5;stroke-miterlimit:10;" x1="566.544" y1="334.067" x2="558.002" y2="337.596"/>
					
						<line style="fill:none;stroke:#8C7E56;stroke-width:1.5;stroke-miterlimit:10;" x1="598.936" y1="412.546" x2="590.559" y2="416.193"/>
				</g>
				<g>
					<path style="fill:none;stroke:#8C7E56;stroke-width:2;stroke-linecap:round;stroke-miterlimit:10;" d="M635.789,342.825
						c0,0-5.344-3.823-6.409-0.367c-0.357,1.158-3.995,12.957-4.598,14.912c-0.603,1.954,0.095,5.889-0.73,8.567
						c-0.826,2.678-3.167,2.441-3.167,2.441"/>
					<g>
						<path style="fill:#C1B376;" d="M641.039,334.44c-1.826-0.555-3.683,0.219-4.147,1.728l-0.722,2.349l-0.977-0.297
							l-36.672,119.123l10.562,3.211l36.672-119.123l-0.977-0.297l0.723-2.349c0.464-1.51-0.64-3.183-2.466-3.738L641.039,334.44z"
							/>
						<path style="fill:#C1B376;" d="M601.977,467.237l7.231-6.645l-10.687-3.249l2.257,9.529
							C600.894,467.36,601.607,467.577,601.977,467.237z"/>
					</g>
					
						<line style="fill:none;stroke:#8C7E56;stroke-width:1.5;stroke-miterlimit:10;" x1="635.193" y1="338.221" x2="645.755" y2="341.431"/>
					
						<line style="fill:none;stroke:#8C7E56;stroke-width:1.5;stroke-miterlimit:10;" x1="598.522" y1="457.344" x2="609.209" y2="460.592"/>
					
						<line style="fill:none;stroke:#8C7E56;stroke-width:1.5;stroke-miterlimit:10;" x1="623.512" y1="376.202" x2="634.124" y2="379.248"/>
				</g>
				<polygon style="fill:#FFBF66;" points="626.222,470.499 582.47,470.499 575.002,383.99 633.691,383.99 				"/>
				
					<line style="fill:none;stroke:#292944;stroke-width:1.5;stroke-miterlimit:10;" x1="575.808" y1="393.336" x2="632.758" y2="393.336"/>
				
					<line style="fill:none;stroke:#292944;stroke-width:1.5;stroke-miterlimit:10;" x1="581.605" y1="460.473" x2="627.309" y2="460.473"/>
			</g>
			<g>
				<path style="fill:#31212F;" d="M89.324,406.374h90.646v-25.742H89.324c-7.108,0-12.871,5.763-12.871,12.871l0,0
					C76.454,400.611,82.216,406.374,89.324,406.374z"/>
				<path style="fill:none;stroke:#5B465A;stroke-width:1.5;stroke-miterlimit:10;" d="M102.195,380.632
					c-7.108,0-12.871,5.763-12.871,12.871l0,0c0,7.108,5.762,12.871,12.871,12.871"/>
				<path style="fill:none;stroke:#5B465A;stroke-width:1.5;stroke-miterlimit:10;" d="M107.253,380.632
					c-7.108,0-12.871,5.763-12.871,12.871l0,0c0,7.108,5.762,12.871,12.871,12.871"/>
				<path style="fill:none;stroke:#5B465A;stroke-width:1.5;stroke-miterlimit:10;" d="M154.775,380.632
					c-7.108,0-12.871,5.763-12.871,12.871l0,0c0,7.108,5.762,12.871,12.871,12.871"/>
				<path style="fill:#5B465A;" d="M168.646,406.374h62.999v-25.742h-62.999c-7.108,0-12.871,5.763-12.871,12.871l0,0
					C155.775,400.611,161.538,406.374,168.646,406.374z"/>
				<path style="fill:#FFFFFF;" d="M169.509,385.402h62.135v16.202h-62.135c-4.474,0-8.101-3.627-8.101-8.101
					C161.408,389.029,165.035,385.402,169.509,385.402z"/>
				
					<line style="fill:none;stroke:#292944;stroke-width:1.5;stroke-miterlimit:10;" x1="178.548" y1="390.638" x2="161.939" y2="390.638"/>
				
					<line style="fill:none;stroke:#292944;stroke-width:1.5;stroke-miterlimit:10;" x1="231.645" y1="397.184" x2="161.939" y2="397.184"/>
				<path style="fill:none;stroke:#5B465A;stroke-width:1.5;stroke-linejoin:round;stroke-miterlimit:10;" d="M120.569,395.807
					c0.626-3.206,3.732-5.298,6.938-4.673c1.799,0.351,3.247,1.484,4.061,2.976c0.542-4.002-2.118-7.782-6.133-8.565
					c-4.165-0.813-8.2,1.905-9.012,6.069c-0.751,3.848,1.515,7.579,5.148,8.766C120.656,399.104,120.244,397.47,120.569,395.807z"/>
				<g>
					
						<line style="fill:none;stroke:#5B465A;stroke-width:1.5;stroke-linecap:round;stroke-miterlimit:10;" x1="110.19" y1="386.564" x2="110.19" y2="388.15"/>
					
						<line style="fill:none;stroke:#5B465A;stroke-width:1.5;stroke-linecap:round;stroke-miterlimit:10;" x1="110.19" y1="390.034" x2="110.19" y2="391.621"/>
					
						<line style="fill:none;stroke:#5B465A;stroke-width:1.5;stroke-linecap:round;stroke-miterlimit:10;" x1="112.718" y1="389.092" x2="111.132" y2="389.092"/>
					
						<line style="fill:none;stroke:#5B465A;stroke-width:1.5;stroke-linecap:round;stroke-miterlimit:10;" x1="109.248" y1="389.092" x2="107.661" y2="389.092"/>
				</g>
				<g>
					
						<line style="fill:none;stroke:#5B465A;stroke-width:1.5;stroke-linecap:round;stroke-miterlimit:10;" x1="132.58" y1="398.5" x2="132.58" y2="400.086"/>
					
						<line style="fill:none;stroke:#5B465A;stroke-width:1.5;stroke-linecap:round;stroke-miterlimit:10;" x1="132.58" y1="401.97" x2="132.58" y2="403.557"/>
					
						<line style="fill:none;stroke:#5B465A;stroke-width:1.5;stroke-linecap:round;stroke-miterlimit:10;" x1="135.109" y1="401.028" x2="133.522" y2="401.028"/>
					
						<line style="fill:none;stroke:#5B465A;stroke-width:1.5;stroke-linecap:round;stroke-miterlimit:10;" x1="131.638" y1="401.028" x2="130.052" y2="401.028"/>
				</g>
				<g>
					
						<line style="fill:none;stroke:#5B465A;stroke-width:1.5;stroke-linecap:round;stroke-miterlimit:10;" x1="136.051" y1="382.873" x2="136.051" y2="384.46"/>
					
						<line style="fill:none;stroke:#5B465A;stroke-width:1.5;stroke-linecap:round;stroke-miterlimit:10;" x1="136.051" y1="386.344" x2="136.051" y2="387.93"/>
					
						<line style="fill:none;stroke:#5B465A;stroke-width:1.5;stroke-linecap:round;stroke-miterlimit:10;" x1="138.579" y1="385.402" x2="136.993" y2="385.402"/>
					
						<line style="fill:none;stroke:#5B465A;stroke-width:1.5;stroke-linecap:round;stroke-miterlimit:10;" x1="135.109" y1="385.402" x2="133.522" y2="385.402"/>
				</g>
				
					<line style="fill:none;stroke:#292944;stroke-width:1.5;stroke-miterlimit:10;" x1="231.645" y1="390.638" x2="188.879" y2="390.638"/>
			</g>
			<g>
				<path style="fill:#FFF3C0;" d="M108.652,345.837c-9.608,0-17.397,7.789-17.397,17.397c0,9.608,7.789,17.397,17.397,17.397
					h77.044v-34.795H108.652z"/>
				<path style="fill:#DDCF94;" d="M170.389,345.837c-9.608,0-17.397,7.789-17.397,17.397c0,9.608,7.789,17.397,17.397,17.397
					h85.156v-34.795H170.389z"/>
				<path style="fill:#FFFFFF;" d="M171.556,352.284c-6.048,0-10.95,4.903-10.95,10.95c0,6.047,4.903,10.95,10.95,10.95h83.988
					v-21.9H171.556z"/>
				
					<line style="fill:none;stroke:#DBC97D;stroke-width:1.5;stroke-miterlimit:10;" x1="197.073" y1="367.593" x2="255.545" y2="367.593"/>
				
					<line style="fill:none;stroke:#DBC97D;stroke-width:1.5;stroke-miterlimit:10;" x1="161.955" y1="367.593" x2="183.048" y2="367.593"/>
				<path style="fill:#E05D4F;" d="M226.555,359.574c3.842,5.973,1.484,14.134,5.948,19.752c1.074,1.352,2.612,2.394,3.563,3.817
					c3.72,5.564,3.243,11.287,3.243,11.287l16.707-0.74c0,0,0.665-3.97-0.928-6.447c-1.911-2.971-5.077-5.035-7.523-7.62
					c-2.731-2.886-3.454-6.889-3.468-10.556c-0.012-2.872-0.467-7.376-2.742-9.411"/>
				
					<line style="fill:none;stroke:#DBC97D;stroke-width:1.5;stroke-miterlimit:10;" x1="160.97" y1="359.667" x2="255.545" y2="359.667"/>
				<path style="fill:none;stroke:#DBC97D;stroke-width:1.5;stroke-miterlimit:10;" d="M149.494,350.695
					c-6.162,6.647-6.411,20.72,0.695,26.418"/>
				<path style="fill:none;stroke:#DBC97D;stroke-width:1.5;stroke-miterlimit:10;" d="M104.012,350.695
					c-6.162,6.647-6.411,20.72,0.695,26.418"/>
				<path style="fill:none;stroke:#DBC97D;stroke-width:1.5;stroke-miterlimit:10;" d="M110.058,350.695
					c-6.162,6.647-6.411,20.72,0.695,26.418"/>
			</g>
			<g>
				<path style="fill:#FEC74F;" d="M76.205,445.316h137.302v-38.991H76.205c-10.767,0-19.495,8.728-19.495,19.495v0
					C56.71,436.588,65.438,445.316,76.205,445.316z"/>
				<path style="fill:#EFB745;" d="M123.188,437.164c-2.552-1.928-4.334-6.277-4.334-11.343c0-5.066,1.783-9.415,4.334-11.343
					v-1.066h-28.24c-4.019,0-7.278,5.556-7.278,12.409c0,6.853,3.258,12.409,7.278,12.409h28.24V437.164z"/>
				<path style="fill:#FEC74F;" d="M159.302,445.316h79.778v-38.991h-79.778c-10.767,0-19.495,8.728-19.495,19.495v0
					C139.807,436.588,148.535,445.316,159.302,445.316z"/>
				<path style="fill:none;stroke:#292944;stroke-width:1.5;stroke-miterlimit:10;" d="M149.555,408.955
					c-5.822,3.372-9.748,9.654-9.748,16.866c0,7.212,3.926,13.494,9.748,16.866"/>
				<path style="fill:none;stroke:#292944;stroke-width:1.5;stroke-miterlimit:10;" d="M70.714,408.955
					c-5.822,3.372-9.748,9.654-9.748,16.866c0,7.212,3.926,13.494,9.748,16.866"/>
				<path style="fill:none;stroke:#292944;stroke-width:1.5;stroke-miterlimit:10;" d="M90.068,408.955
					c-5.822,3.372-9.748,9.654-9.748,16.866c0,7.212,3.926,13.494,9.748,16.866"/>
				<path style="fill:#EFB745;" d="M73.637,425.821c0-10.767,8.728-19.495,19.495-19.495h-7.798
					c-10.767,0-19.495,8.728-19.495,19.495c0,10.767,8.728,19.495,19.495,19.495h7.798
					C82.366,445.316,73.637,436.588,73.637,425.821z"/>
				<path style="fill:#EFB745;" d="M132.627,425.821c0-10.767,8.728-19.495,19.495-19.495h-7.797
					c-10.767,0-19.495,8.728-19.495,19.495c0,10.767,8.728,19.495,19.495,19.495h7.797
					C141.355,445.316,132.627,436.588,132.627,425.821z"/>
				<path style="fill:#EDCFB4;" d="M160.61,413.55h78.47v24.541h-78.47c-6.777,0-12.271-5.494-12.271-12.271
					C148.339,419.044,153.833,413.55,160.61,413.55z"/>
				
					<line style="fill:none;stroke:#D6AA83;stroke-width:1.5;stroke-miterlimit:10;" x1="148.691" y1="428.738" x2="210.56" y2="428.738"/>
				
					<line style="fill:none;stroke:#D6AA83;stroke-width:1.5;stroke-miterlimit:10;" x1="222.502" y1="428.738" x2="239.08" y2="428.738"/>
				<path style="fill:#6B543C;" d="M185.46,420.165l-13.41,0.117c1.12,5.753,3.198,11.318,6.121,16.399l14.781-0.202
					C189.161,431.57,186.714,426.24,185.46,420.165z"/>
				<path style="fill:#FFF3C0;" d="M225.175,420.165l-11.267,0.09c0.574,4.429,1.638,8.714,3.135,12.625l11.969-0.155
					C227.07,428.946,225.817,424.842,225.175,420.165z"/>
				
					<line style="fill:none;stroke:#D6AA83;stroke-width:1.5;stroke-miterlimit:10;" x1="239.08" y1="420.165" x2="149.555" y2="420.165"/>
			</g>
			<g>
				<path style="fill:#98A48D;" d="M230.846,470.878h-90.014v-25.562h90.014c7.059,0,12.781,5.722,12.781,12.781l0,0
					C243.626,465.156,237.904,470.878,230.846,470.878z"/>
				<path style="fill:#6C7761;" d="M176.368,470.878H86.354v-25.562h90.014c7.059,0,12.781,5.722,12.781,12.781l0,0
					C189.149,465.156,183.427,470.878,176.368,470.878z"/>
				<path style="fill:none;stroke:#292944;stroke-width:1.5;stroke-miterlimit:10;" d="M176.368,445.316
					c7.059,0,12.781,5.722,12.781,12.781l0,0c0,7.059-5.722,12.781-12.781,12.781"/>
				<path style="fill:none;stroke:#292944;stroke-width:1.5;stroke-miterlimit:10;" d="M229.012,445.316
					c5.085,0,9.207,5.722,9.207,12.781l0,0c0,7.059-4.122,12.781-9.207,12.781"/>
				<path style="fill:#FFFFFF;" d="M175.51,450.053H86.354v16.089h89.156c4.443,0,8.045-3.602,8.045-8.045
					C183.555,453.655,179.953,450.053,175.51,450.053z"/>
				
					<line style="fill:none;stroke:#292944;stroke-width:1.5;stroke-miterlimit:10;" x1="86.354" y1="462.283" x2="182.378" y2="462.283"/>
				<path style="fill:#EF750D;" d="M150.488,455.726c0,0,1.105,7.388-4.388,12.697l-4.477-2.281l-7.257,2.281
					c5.493-5.309,4.388-12.697,4.388-12.697"/>
				
					<line style="fill:none;stroke:#292944;stroke-width:1.5;stroke-miterlimit:10;" x1="183.199" y1="455.726" x2="86.354" y2="455.726"/>
			</g>
		</g>
		<g>
			<polygon style="opacity:0.35;fill:#FFFFE6;" points="389.801,136.201 200.633,470.878 603.359,470.878 507.889,136.201 			"/>
			
				<line style="fill:none;stroke:#292944;stroke-width:1.5;stroke-miterlimit:10;" x1="448.845" y1="105.782" x2="448.845" y2="19.489"/>
			
				<ellipse transform="matrix(0.2278 -0.9737 0.9737 0.2278 205.6241 548.8539)" style="fill:#FFFFFF;" cx="448.845" cy="144.788" rx="20.197" ry="20.197"/>
			<polygon style="fill:#FEC74F;" points="448.845,97.298 389.801,136.201 507.889,136.201 			"/>
			
				<line style="fill:none;stroke:#292944;stroke-width:1.5;stroke-miterlimit:10;" x1="398.069" y1="130.066" x2="499.621" y2="130.066"/>
		</g>
		<g>
			<g>
				<path style="fill:#E05D4F;" d="M424.451,207.979c15.258-1.485,30.72,3.845,43.487,13.298
					c12.767,9.452,21.736,20.806,28.763,37.623l-19.824,14.608c0,0-3.041-14.942-14.019-31.929
					c-6.492-10.046-19.893-21.359-33.476-24.328"/>
				<path style="fill:#E05D4F;" d="M416.405,207.017c11.273-10.389,26.82-15.467,42.704-15.631
					c15.885-0.164,29.887,3.479,45.637,12.652l-6.997,23.61c0,0-11.439-10.082-30.443-17.006
					c-11.238-4.095-28.751-5.033-41.375,0.794"/>
				<path style="fill:none;stroke:#231F20;stroke-width:1.5;stroke-miterlimit:10;" d="M416.351,209.717
					c11.135-7.106,24.728-9.462,37.938-9.392c7.314,0.039,14.667,0.781,21.686,2.84c7.018,2.059,13.708,5.475,19.078,10.442"/>
				<path style="fill:none;stroke:#231F20;stroke-width:1.5;stroke-miterlimit:10;" d="M429.421,212.924
					c11.258,0.897,22.261,4.802,31.567,11.201c9.305,6.399,16.889,15.277,21.756,25.468"/>
				<path style="fill:#FFBF82;" d="M373.25,279.776l-1.152,22.507c0,0,4.311,18.097,26.715,18.097
					c22.404,0,29.552-18.705,29.552-18.705l-3.975-27.373"/>
				<g>
					<path style="fill:#E89D60;" d="M370.43,254.153c-2.681-2.154-6.399-3.016-9.752-2.24c-2.688,0.621-4.816,2.581-5.83,4.854
						c-1.014,2.272-1.017,4.816-0.48,7.211c1.14,5.081,5.017,9.878,10.6,11.547c1.083,0.324,2.241,0.529,3.371,0.372
						c2.806-0.391,4.571-2.793,5.973-4.963"/>
					<path style="fill:none;stroke:#231F20;stroke-width:1.5;stroke-miterlimit:10;" d="M357.585,260.527
						c5.384,1.964,10.621,4.24,15.665,6.808"/>
				</g>
				<g>
					<path style="fill:#E89D60;" d="M428.271,254.153c2.681-2.154,6.399-3.016,9.752-2.24c2.688,0.621,4.815,2.581,5.83,4.854
						c1.014,2.272,1.017,4.816,0.48,7.211c-1.14,5.081-5.017,9.878-10.6,11.547c-1.083,0.324-2.241,0.529-3.371,0.372
						c-2.806-0.391-4.571-2.793-5.973-4.963"/>
					<path style="fill:none;stroke:#231F20;stroke-width:1.5;stroke-miterlimit:10;" d="M441.117,260.527
						c-5.384,1.964-10.621,4.24-15.665,6.808"/>
				</g>
				<path style="fill:#FFBF82;" d="M366.023,265.927c1.291,6.422,2.979,12.93,6.682,18.333
					c7.299,10.649,21.196,14.438,33.434,12.088c39.973-7.678,32.859-97.232-8.906-96.722c-12.412,0.151-23.036,5.291-28.876,16.568
					C360.445,231.474,362.776,249.778,366.023,265.927z"/>
				<path style="fill:#31212F;" d="M416.574,201.146c-0.968-0.432-1.957-0.846-2.966-1.245c-5.814-2.303-12.164-4.736-18.526-4.116
					c-6.563,0.64-13.015,3.014-18.505,6.647c-2.334,1.544-4.505,3.322-6.601,5.177c-1.601,1.417-3.166,2.887-4.503,4.555
					c-2.54,3.17-5.837,5.453-8.086,8.755c-2.564,3.765-4.847,7.96-5.036,12.613c-0.427,10.492,5.996,18.727,12.453,26.318
					c-0.113-3.37-0.225-6.766,0.319-10.094c0.601-3.682,2.535-9.278,5.863-11.388c3.348,5.428,9.225,8.598,15.721,7.335
					c2.949-0.574,5.67-1.946,8.478-3.015c3.548-1.35,6.188-1.145,9.79-0.925c2.796,0.171,6.388-0.322,9.103-1.099
					c3.43-0.981,9.063-6.475,9.063-6.475s0.069,4.82,2.221,8.48c0.958,1.629,2.696,2.648,3.947,4.065
					c3.064,3.469,2.957,12.441,2.957,12.441s3.632-2.313,4.209-3.061c1.072-1.388,1.981-2.901,2.712-4.495
					c1.422-3.101,2.356-6.782,2.103-10.217c-0.583-7.912-1.237-15.508-4.909-22.749C432.08,210.166,425.159,204.974,416.574,201.146
					z"/>
				<path style="fill:#E05D4F;" d="M434.629,213.58c-4.592,2.837-10.774,5.313-16.37,6.428
					c-17.383,3.462-38.337,0.395-51.379-10.655l-10.643,10.59c15.94,16.877,41.549,18.727,62.793,13.439
					c6.838-1.702,14.393-5.484,20.006-9.818L434.629,213.58z"/>
				<path style="fill:none;stroke:#231F20;stroke-width:1.5;stroke-miterlimit:10;" d="M395.828,256.173
					c0.249,4.492,0.09,9.113-1.142,13.419c-0.755,2.638-1.066,7.355,2.065,8.622c2.113,0.855,5.088-0.363,6.692-1.727"/>
				<path style="fill:none;stroke:#231F20;stroke-width:1.5;stroke-miterlimit:10;" d="M398.813,284.022
					c1.683-1.116,3.476-2.151,5.459-2.53c1.983-0.38,4.206-0.007,5.659,1.395"/>
				<path style="fill:none;stroke:#231F20;stroke-width:1.5;stroke-miterlimit:10;" d="M408.621,255.413
					c0.978,0.313,2.058,0.105,2.995-0.313c0.938-0.418,1.771-1.033,2.641-1.578c2.968-1.858,6.432-2.915,9.932-3.028"/>
				<path style="fill:none;stroke:#231F20;stroke-width:1.5;stroke-miterlimit:10;" d="M383.646,255.563
					c-1.743-1.139-3.5-2.285-5.435-3.053c-1.935-0.768-4.084-1.139-6.113-0.673"/>
				<path style="fill:#231F20;" d="M418.844,266.47c0,1.71-1.092,3.096-2.439,3.096c-1.347,0-2.439-1.386-2.439-3.096
					c0-1.71,1.092-3.096,2.439-3.096C417.752,263.374,418.844,264.76,418.844,266.47z"/>
				<path style="fill:#231F20;" d="M382.114,266.47c0,1.71-1.092,3.096-2.439,3.096c-1.347,0-2.439-1.386-2.439-3.096
					c0-1.71,1.092-3.096,2.439-3.096C381.022,263.374,382.114,264.76,382.114,266.47z"/>
				<g>
					
						<ellipse style="fill:none;stroke:#FFF2CC;stroke-width:1.5;stroke-miterlimit:10;" cx="379.373" cy="262.787" rx="12.968" ry="14.466"/>
					
						<ellipse style="fill:none;stroke:#FFF2CC;stroke-width:1.5;stroke-miterlimit:10;" cx="415.899" cy="262.787" rx="12.968" ry="14.466"/>
					
						<line style="fill:none;stroke:#FFF2CC;stroke-width:1.5;stroke-miterlimit:10;" x1="392.08" y1="259.886" x2="402.931" y2="259.886"/>
				</g>
				<path style="fill:none;stroke:#231F20;stroke-width:1.5;stroke-miterlimit:10;" d="M373.959,286.112
					c3.59,4.858,8.109,9.186,13.463,11.606c13.455,6.08,29.529-0.279,37.597-12.993c0.147-0.232,0.29-0.467,0.432-0.703"/>
				<path style="fill:none;stroke:#231F20;stroke-width:1.5;stroke-miterlimit:10;" d="M433.628,213.367
					c2.267,2.652,4.01,5.749,5.102,9.062"/>
				<path style="fill:none;stroke:#231F20;stroke-width:1.5;stroke-miterlimit:10;" d="M427.372,207.728
					c3.169-0.154,6.35-0.039,9.499,0.346"/>
				<path style="fill:none;stroke:#231F20;stroke-width:1.5;stroke-miterlimit:10;" d="M358.503,217.548
					c16.345,18.589,47.721,18.623,68.984,9.688c3.734-1.569,7.413-3.352,10.548-5.94"/>
				<path style="fill:none;stroke:#231F20;stroke-width:1.5;stroke-miterlimit:10;" d="M364.952,211.27
					c0,0,7.207,11.072,33.117,12.507c27.383,1.517,37.177-8.687,37.177-8.687"/>
			</g>
			<g>
				<polyline style="fill:#989DD8;" points="485.063,365.936 436.199,302.567 401.124,320.454 364.162,302.89 315.187,368.872 
					308.429,470.878 493.484,470.878 485.063,367.404 				"/>
				<path style="fill:#989DD8;" d="M372.098,300.469c0,0-44.262,8.726-57.687,17.788s-26.178,25.507-36.247,53.699
					c-10.069,28.192-19.13,67.124-14.432,79.877c4.699,12.753,11.747,19.045,27.856,19.045c16.11,0,30.103,0,30.103,0
					l17.964-105.557"/>
				<path style="fill:none;stroke:#231F20;stroke-width:1.5;stroke-miterlimit:10;" d="M275.035,417.69
					c5.627-5.464,13.411-8.387,21.229-9.022c7.818-0.635,15.687,0.884,23.125,3.375"/>
				<path style="fill:none;stroke:#231F20;stroke-width:1.5;stroke-miterlimit:10;" d="M321.693,470.878l16.943-94.676
					c0.266-3.324-0.453-9.466-1.541-16.628c-0.997-6.563-4.531-15.107-8.001-20.766"/>
				<path style="fill:#989DD8;" d="M428.895,300.469c0,0,44.262,8.726,57.687,17.788c13.425,9.062,32.399,34.342,45.007,61.493
					c13.11,28.231,23.617,57.14,18.918,69.894c-4.699,12.754-15.144,21.234-31.253,21.234s-29.39-8.991-29.39-8.991l-19.481-100.183
					"/>
				<path style="fill:none;stroke:#231F20;stroke-width:1.5;stroke-miterlimit:10;" d="M489.863,461.887
					c-3.083-15.855-6.166-31.71-9.25-47.566c-2.206-11.343-4.411-22.686-6.617-34.029c-2.228-11.455-4.512-21.925,0.454-33.267
					c0.53-1.209,1.126-2.389,1.787-3.532"/>
				<path style="fill:#989DD8;" d="M372.546,293.521l-8.384,9.369c0,0,7.936,26.896,26.925,32.339l10.007-12.287l11.38,12.114
					c14.277-3.998,23.725-32.489,23.725-32.489l-9.018-9.046c0,0-15.305,21.323-26.949,21.323S372.546,293.521,372.546,293.521z"/>
				<path style="fill:none;stroke:#231F20;stroke-width:1.5;stroke-miterlimit:10;" d="M364.162,302.89
					c0,0,7.936,26.896,26.925,32.339l10.007-12.287l11.38,12.114c14.277-3.998,23.725-32.489,23.725-32.489"/>
				<path style="fill:none;stroke:#231F20;stroke-width:1.5;stroke-miterlimit:10;" d="M487.023,419.07
					c2.237-0.731,4.474-1.463,6.711-2.194c4.612-1.508,9.252-3.022,14.055-3.714c11.582-1.669,23.807,1.764,32.827,9.219"/>
				
					<rect x="434.415" y="374.87" style="fill:none;stroke:#231F20;stroke-width:1.5;stroke-miterlimit:10;" width="34.165" height="4.88"/>
				
					<line style="fill:none;stroke:#231F20;stroke-width:1.5;stroke-miterlimit:10;" x1="401.094" y1="322.942" x2="401.094" y2="470.878"/>
				<path style="fill:none;stroke:#231F20;stroke-width:1.5;stroke-miterlimit:10;" d="M519.424,413.151
					c7.225-0.754,16.501,0.655,22.569,2.203"/>
			</g>
			<g>
				<path style="fill:#EAA56C;" d="M307.587,445.827c0,0,13.998,2.29,20.602,2.299c3.599,0.005,7.207-0.285,10.653-1.046
					c3.488-0.77,6.207-2.276,9.298-3.701c3.268-1.507,6.494-2.531,10.187-3.183c2.257-0.399,5.807-1.65,6.75-3.471
					c1.03-1.99-0.967-4.311-3.323-5.455c-7.673-3.725-18.203,0.001-25.756-3.887"/>
				<g>
					<polygon style="fill:#EF750D;" points="323.897,372.139 329.608,369.602 366.074,440.165 360.364,442.703 					"/>
					<path style="fill:#6B543C;" d="M323.547,367.866l2.688-1.195c0.834-0.371,1.835-0.044,2.235,0.73l1.137,2.2l-5.71,2.538
						l-1.137-2.2C322.361,369.165,322.713,368.237,323.547,367.866z"/>
					
						<line style="fill:none;stroke:#231F20;stroke-width:1.5;stroke-miterlimit:10;" x1="329.608" y1="369.602" x2="323.897" y2="372.139"/>
					<polyline style="fill:#F9E4CA;" points="366.074,440.165 366.404,447.598 360.364,442.703 					"/>
					<polygon style="fill:#292944;" points="366.404,447.598 366.258,444.296 363.72,445.423 					"/>
				</g>
				<path style="fill:#FFBF82;" d="M300.998,414.233c3.258-2.801,6.604-5.515,10.033-8.135c2.724-2.082,6.939-3.017,10.383-3.173
					c3.938-0.178,7.859,0.539,11.679,1.444c2.953,0.699,5.627,2.054,8.483,2.98c5.141,1.668,7.28,3.827,10.522,7.814
					c1.867,2.296,3.76,6.293,6.348,8.471c1.289,1.085,3.077,3.306,1.63,5.22c-0.83,1.098-2.793,2.327-4.217,2.561
					c-6.543,1.075-10.862-3.288-15.734-6.616c-1.302-0.889-2.61-1.782-4.034-2.494c-4.611-2.305-10.222-2.543-15.276-1.267"/>
				<path style="fill:#FFBF82;" d="M302.663,454.986c11.367,0,24.333,0,26.095,0c1.762,0,5.376-1.238,6.224-2.021
					c2.771-2.56,2.771-4.181,2.111-5.214c2.772-0.046,5.243-1.817,6.538-4.131c1.295-2.315,0.832-4.534-1.063-6.273
					c3.271,0.013,5.513-4.188,5.015-7.757c-0.498-3.569-2.866-6.445-5.31-8.846c-9.075-8.913-16.541-20.394-29.033-14.851
					c-4.887,2.168-16.498,11.746-20.684,14.895c-4.572,3.439-8.399,8.258-8.651,13.712
					C283.474,443.84,291.986,454.986,302.663,454.986z"/>
				<path style="fill:none;stroke:#231F20;stroke-width:1.5;stroke-miterlimit:10;" d="M337.095,448.05
					c-0.735-0.701-1.532-1.345-2.381-1.924c-0.681-0.464-1.396-0.887-2.147-1.247c-3.067-1.471-6.589-1.84-10.022-2.186"/>
				<path style="fill:none;stroke:#231F20;stroke-width:1.5;stroke-miterlimit:10;" d="M343.321,437.644
					c-1.012-0.544-1.776-1.402-2.682-2.089c-1.38-1.047-3.49-2.309-5.174-2.815c-1.403-0.422-2.806-0.844-4.208-1.266
					c-2.551-0.767-5.189-1.544-7.859-1.316"/>
				<path style="fill:none;stroke:#231F20;stroke-width:1.5;stroke-miterlimit:10;" d="M323.897,414.23
					c3,0.224,6.064,0.463,8.82,1.584c1.574,0.64,3.002,1.551,4.385,2.497c2.242,1.535,4.333,3.142,6.218,5.013
					c1.682,1.67,3.518,2.937,4.085,5.31c0.21,0.879,0.318,1.497,0.416,2.393"/>
				<path style="fill:none;stroke:#231F20;stroke-width:1.5;stroke-miterlimit:10;" d="M356.017,420.992
					c-1.145,0.422-2.289,0.844-3.434,1.266c-0.556,0.205-1.137,0.427-1.509,0.862c-0.376,0.44-0.476,1.036-0.43,1.596
					c0.121,1.474,1.386,2.905,2.979,2.968c0.481,0.019,0.959-0.081,1.422-0.205c1.663-0.447,3.222-1.222,4.542-2.26"/>
				<path style="fill:none;stroke:#231F20;stroke-width:1.5;stroke-miterlimit:10;" d="M295.932,453.357
					c-3.95-2.557-6.344-7.054-6.131-11.517"/>
				<path style="fill:none;stroke:#231F20;stroke-width:1.5;stroke-miterlimit:10;" d="M291.724,425.123
					c3.326-4.753,10.479-12.342,15.112-16.035"/>
			</g>
			<g>
				<path style="fill:#FFFFFF;" d="M435.508,447.637c-26.234,1.558-31.135,15.387-31.135,15.387s-4.902-13.828-31.135-15.387
					c-16.77-0.996-91.035,8.813-91.035,8.813v11.853h244.341V456.45C526.543,456.45,452.278,446.641,435.508,447.637z"/>
				<path style="fill:none;stroke:#EDD9C5;stroke-width:1.5;stroke-miterlimit:10;" d="M526.543,459.402
					c0,0-74.265-6.479-91.035-5.821c-26.234,1.029-31.135,10.057-31.135,10.057s-4.902-9.027-31.135-10.057
					c-16.77-0.658-91.035,5.821-91.035,5.821"/>
				<path style="fill:none;stroke:#EDD9C5;stroke-width:1.5;stroke-miterlimit:10;" d="M526.543,461.635
					c0,0-74.265-3.533-91.035-3.174c-26.234,0.561-31.135,6.831-31.135,6.831s-4.902-6.27-31.135-6.831
					c-16.77-0.359-91.035,3.174-91.035,3.174"/>
				<rect x="277.872" y="465.292" style="fill:#FEC74F;" width="253.001" height="5.189"/>
			</g>
			<g>
				<path style="fill:#FFBF82;" d="M472.177,418.262c-3.261,3.146-6.486,6.294-8.696,10.404c-2.528,4.7-7.089,15.228-2.856,20.438
					c1.927,2.371,7.319,1.78,8.931-0.78c0.567,2.937,2.601,4.941,5.41,5.251c2.809,0.31,5.893-0.929,8.142-2.69
					c1.39,2.216,3.948,2.235,6.397,2.69c3.758,0.699,8.599-1.982,8.599-1.982c2.379,1.402,4.907,2.206,7.517,3.035
					c3.666,1.164,9.562-3.84,10.123-4.089c0.61-0.271,4.271-0.183,6.356-0.904c5.078-5.489,4.451-8.855,3.627-12.927
					c-0.825-4.072-2.689-7.874-4.97-11.347c-2.127-3.237-4.678-6.271-7.918-8.394c-3.565-2.335-7.25-2.147-11.098-3.37
					c-4.291-1.363-8.637-1.834-13.095-2.455c-5.674-0.791-11.464-1.146-17.098-0.077c-7.243,1.374-12.67,6.369-16.74,12.588
					c-4.174,6.379-6.602,14.366-11.716,19.975c-1.32,1.447-3.017,2.84-2.722,5.12c0.188,1.449,1.18,2.654,2.449,3.244
					c4.814,2.238,10.037-0.448,13.411-4.294c3.026-3.451,4.989-7.781,7.517-11.658c2.506-3.843,5.588-7.259,9.098-10.083"/>
				<path style="fill:none;stroke:#231F20;stroke-width:1.5;stroke-miterlimit:10;" d="M469.142,449.634
					c2.579-8.707,7.66-15.171,13.294-19.967"/>
				<path style="fill:none;stroke:#231F20;stroke-width:1.5;stroke-miterlimit:10;" d="M483.108,452.339
					c0,0,1.266-8.013,8.953-13.23"/>
				<path style="fill:none;stroke:#231F20;stroke-width:1.5;stroke-miterlimit:10;" d="M459.116,444.518
					c-0.441-4.481,0.428-9.027,2.168-13.098c1.991-4.659,5.226-8.682,9.145-11.648"/>
				<path style="fill:none;stroke:#231F20;stroke-width:1.5;stroke-miterlimit:10;" d="M441.363,445.575
					c0.918,1.141,2.024,2.335,3.383,2.849c1.712,0.647,3.652-0.645,4.555-2.12c0.694-1.134,0.628-2.29-0.429-3.09
					c-1.118-0.846-2.236-1.692-3.354-2.539"/>
				<path style="fill:none;stroke:#231F20;stroke-width:1.5;stroke-miterlimit:10;" d="M498.104,452.042
					c2.435-1.068,4.536-2.707,6.999-3.718"/>
				<path style="fill:none;stroke:#231F20;stroke-width:1.5;stroke-miterlimit:10;" d="M515.852,450.645
					c2.964-2.188,5.191-5.355,6.248-8.884"/>
			</g>
		</g>
		
			<line style="fill:none;stroke:#231F20;stroke-width:1.5;stroke-miterlimit:10;" x1="55.084" y1="470.878" x2="694.916" y2="470.878"/>
		<g>
			<g>
				
					<line style="fill:none;stroke:#8C7E56;stroke-width:1.5;stroke-miterlimit:10;" x1="511.835" y1="309.793" x2="511.835" y2="313.17"/>
				
					<line style="fill:none;stroke:#8C7E56;stroke-width:1.5;stroke-miterlimit:10;" x1="511.835" y1="317.267" x2="511.835" y2="320.643"/>
				
					<line style="fill:none;stroke:#8C7E56;stroke-width:1.5;stroke-miterlimit:10;" x1="517.261" y1="315.218" x2="513.884" y2="315.218"/>
				
					<line style="fill:none;stroke:#8C7E56;stroke-width:1.5;stroke-miterlimit:10;" x1="509.787" y1="315.218" x2="506.41" y2="315.218"/>
			</g>
			<g>
				
					<line style="fill:none;stroke:#8C7E56;stroke-width:1.5;stroke-miterlimit:10;" x1="482.114" y1="159.053" x2="482.114" y2="162.43"/>
				
					<line style="fill:none;stroke:#8C7E56;stroke-width:1.5;stroke-miterlimit:10;" x1="482.114" y1="166.527" x2="482.114" y2="169.904"/>
				
					<line style="fill:none;stroke:#8C7E56;stroke-width:1.5;stroke-miterlimit:10;" x1="487.539" y1="164.479" x2="484.162" y2="164.479"/>
				
					<line style="fill:none;stroke:#8C7E56;stroke-width:1.5;stroke-miterlimit:10;" x1="480.065" y1="164.479" x2="476.689" y2="164.479"/>
			</g>
			<g>
				
					<line style="fill:none;stroke:#8C7E56;stroke-width:1.5;stroke-miterlimit:10;" x1="383.264" y1="177.895" x2="383.264" y2="181.271"/>
				
					<line style="fill:none;stroke:#8C7E56;stroke-width:1.5;stroke-miterlimit:10;" x1="383.264" y1="185.368" x2="383.264" y2="188.745"/>
				
					<line style="fill:none;stroke:#8C7E56;stroke-width:1.5;stroke-miterlimit:10;" x1="388.69" y1="183.32" x2="385.313" y2="183.32"/>
				
					<line style="fill:none;stroke:#8C7E56;stroke-width:1.5;stroke-miterlimit:10;" x1="381.216" y1="183.32" x2="377.839" y2="183.32"/>
			</g>
			<g>
				
					<line style="fill:none;stroke:#8C7E56;stroke-width:1.5;stroke-miterlimit:10;" x1="270.701" y1="276.81" x2="270.701" y2="280.187"/>
				
					<line style="fill:none;stroke:#8C7E56;stroke-width:1.5;stroke-miterlimit:10;" x1="270.701" y1="284.284" x2="270.701" y2="287.66"/>
				
					<line style="fill:none;stroke:#8C7E56;stroke-width:1.5;stroke-miterlimit:10;" x1="276.127" y1="282.235" x2="272.75" y2="282.235"/>
				
					<line style="fill:none;stroke:#8C7E56;stroke-width:1.5;stroke-miterlimit:10;" x1="268.653" y1="282.235" x2="265.276" y2="282.235"/>
			</g>
			<path style="fill:none;stroke:#EF750D;stroke-width:1.5;stroke-miterlimit:10;" d="M515.08,267.335
				c0,1.792-1.453,3.245-3.245,3.245c-1.792,0-3.245-1.453-3.245-3.245c0-1.792,1.453-3.245,3.245-3.245
				C513.628,264.09,515.08,265.543,515.08,267.335z"/>
			<circle style="fill:none;stroke:#EF750D;stroke-width:1.5;stroke-miterlimit:10;" cx="521.626" cy="242" r="6.494"/>
			<path style="fill:none;stroke:#EF750D;stroke-width:1.5;stroke-miterlimit:10;" d="M311.674,212.678
				c0,1.792-1.453,3.245-3.245,3.245c-1.792,0-3.245-1.453-3.245-3.245c0-1.792,1.453-3.245,3.245-3.245
				C310.221,209.433,311.674,210.886,311.674,212.678z"/>
			<path style="fill:none;stroke:#EF750D;stroke-width:1.5;stroke-miterlimit:10;" d="M267.889,327.454
				c0,1.792-1.453,3.245-3.245,3.245c-1.792,0-3.245-1.453-3.245-3.245c0-1.792,1.453-3.245,3.245-3.245
				C266.436,324.209,267.889,325.662,267.889,327.454z"/>
			<circle style="fill:none;stroke:#EF750D;stroke-width:1.5;stroke-miterlimit:10;" cx="335.322" cy="276.521" r="5.714"/>
			<path style="fill:none;stroke:#EF750D;stroke-width:1.5;stroke-miterlimit:10;" d="M410.539,168.472
				c0,1.792-1.453,3.245-3.245,3.245c-1.792,0-3.245-1.453-3.245-3.245c0-1.792,1.453-3.245,3.245-3.245
				C409.086,165.227,410.539,166.68,410.539,168.472z"/>
		</g>
	</g>
</g>
</svg>
