<svg width="362" height="351" viewBox="0 0 362 351" fill="none" xmlns="http://www.w3.org/2000/svg">
<path d="M297.699 2.18283L38.7437 68.8396C28.5382 71.4865 19.3974 77.2165 12.5675 85.2483C5.7376 93.2802 1.55104 103.223 0.578601 113.721C-0.393839 124.219 1.89516 134.762 7.13352 143.912C12.3719 153.062 20.3047 160.373 29.8503 164.849L120.979 207.186C123.136 208.25 125.06 209.732 126.638 211.548C128.215 213.363 129.416 215.474 130.169 217.758L159.411 313.892C161.909 322.059 166.407 329.472 172.499 335.458C178.59 341.444 186.081 345.813 194.29 348.168C202.499 350.522 211.167 350.788 219.505 348.941C227.843 347.094 235.587 343.193 242.034 337.591C248.019 332.283 252.74 325.704 255.853 318.335L357.901 71.177C361.504 62.3905 362.594 52.7757 361.051 43.4054C359.508 34.0352 355.391 25.278 349.161 18.1109C342.931 10.9438 334.832 5.64868 325.767 2.81637C316.703 -0.0159431 307.03 -0.274082 297.828 2.07075L297.699 2.18283ZM326.235 58.1855L224.188 305.344C222.807 308.542 220.481 311.242 217.522 313.081C214.563 314.92 211.113 315.811 207.634 315.633C204.154 315.456 200.813 314.219 198.056 312.089C195.3 309.958 193.261 307.036 192.212 303.713L162.841 207.692C162.436 206.42 161.958 205.174 161.407 203.959L250.239 126.738C253.659 123.765 255.757 119.556 256.074 115.036C256.39 110.517 254.897 106.057 251.925 102.637C248.952 99.2177 244.743 97.1191 240.223 96.8031C235.704 96.487 231.244 97.9794 227.824 100.952L138.992 178.173C137.865 177.458 136.697 176.811 135.495 176.233L44.4951 133.784C41.351 132.283 38.7409 129.857 37.0146 126.831C35.2884 123.805 34.5286 120.324 34.8371 116.854C35.1457 113.384 36.5078 110.091 38.7409 107.417C40.9739 104.743 43.9711 102.815 47.3307 101.893L306.286 35.2361C309.338 34.4822 312.539 34.5853 315.537 35.5341C318.535 36.4828 321.212 38.2405 323.275 40.6134C325.338 42.9863 326.706 45.8824 327.228 48.9829C327.75 52.0833 327.407 55.2677 326.235 58.1855Z" fill="#20B486"/>
</svg>
